<?xml version="1.0" encoding="utf-8"?>
<!-- Generator: Adobe Illustrator 21.1.0, SVG Export Plug-In . SVG Version: 6.00 Build 0)  -->
<svg version="1.1" id="Layer_1" xmlns="http://www.w3.org/2000/svg" xmlns:xlink="http://www.w3.org/1999/xlink" x="0px" y="0px"
	 viewBox="0 0 150 150" style="enable-background:new 0 0 150 150;" xml:space="preserve">
<style type="text/css">
	.st0{fill-rule:evenodd;clip-rule:evenodd;}
</style>
<path d="M128.5,115.5c-6,0-9.5-3-9.7-7.4h5.6c0,1.3,0.8,3.3,4.5,3.4c2.4,0,3.5-1.4,3.5-2.5c-0.1-1.7-2.3-1.8-4.5-2.2
	c-2.3-0.4-4.2-0.8-5.6-1.5c-1.8-0.9-3-2.9-3-5.2c0-3.8,3.3-6.9,8.9-6.9c5.4,0,8.8,2.8,9.1,7h-5.4c-0.1-1.1-0.3-2.9-3.5-2.9
	c-2.1,0-3.5,0.4-3.7,1.9c0,2.2,4.5,2.1,7.9,3c3.3,0.9,5.5,2.9,5.5,5.8C138.1,113.4,133.8,115.5,128.5,115.5L128.5,115.5z"/>
<polygon points="25.6,79.9 44.2,69.2 54.1,86.2 29.2,86.2 25.6,79.9 "/>
<polygon points="67.3,115 62,115 62,93.5 67.3,93.5 67.3,115 "/>
<path class="st0" d="M17.1,104.4c0,3.3,2.8,6.1,6.2,6.1c3.4,0,6.2-2.8,6.2-6.1c0-3.3-2.8-6.2-6.2-6.2C19.9,98.2,17.1,101,17.1,104.4
	L17.1,104.4z M23.1,115.5c-6.1,0-11.1-5-11.1-11.1c0-6.2,5-11,11.1-11c2.3,0,4.5,0.6,6.4,1.9v-1.7h5.2V115h-5.2v-1.4
	C27.7,114.8,25.5,115.5,23.1,115.5L23.1,115.5z"/>
<polygon points="94.7,86.2 68.7,41.3 87.4,30.5 119.6,86.2 94.7,86.2 "/>
<path class="st0" d="M41.7,104.4c0,3.3,2.8,6.1,6.2,6.1c3.3,0,6.2-2.8,6.2-6.1c0-3.3-2.8-6.2-6.2-6.2C44.5,98.2,41.7,101,41.7,104.4
	L41.7,104.4z M47.8,115.5c-6.2,0-11.2-5-11.2-11.1c0-6.2,5-11,11.2-11c2.3,0,4.5,0.6,6.3,1.9v-9h5.3V115h-5.3v-1.4
	C52.2,114.8,50.1,115.5,47.8,115.5L47.8,115.5z"/>
<polygon points="47.3,60.8 66.1,50.1 86.9,86.2 67.3,86.2 67.3,91.6 62,91.6 62,86.2 47.3,60.8 "/>
<path class="st0" d="M99.1,104.4c0,3.3,2.8,6.1,6.2,6.1c3.3,0,6.1-2.8,6.1-6.1c0-3.3-2.8-6.2-6.1-6.2C102,98.2,99.1,101,99.1,104.4
	L99.1,104.4z M105.1,115.5c-6.1,0-11.1-5-11.1-11.1c0-6.2,5-11,11.1-11c2.3,0,4.5,0.6,6.3,1.9v-1.7h5.3V115h-5.3v-1.4
	C109.6,114.8,107.5,115.5,105.1,115.5L105.1,115.5z"/>
<path class="st0" d="M74.6,104.4c0,3.3,2.8,6.1,6.1,6.1c3.4,0,6.2-2.8,6.2-6.1c0-3.3-2.8-6.2-6.2-6.2C77.5,98.2,74.6,101,74.6,104.4
	L74.6,104.4z M86.9,86.2h5.2V115h-5.2v-1.4c-1.8,1.2-4,1.9-6.4,1.9c-6.1,0-11.1-5-11.1-11.1c0-6.2,5-11,11.1-11
	c2.4,0,4.5,0.6,6.4,1.9V86.2L86.9,86.2z"/>
</svg>
