<?xml version="1.0" encoding="utf-8"?>
<!-- Generator: Adobe Illustrator 21.1.0, SVG Export Plug-In . SVG Version: 6.00 Build 0)  -->
<svg version="1.1" id="Layer_1" xmlns="http://www.w3.org/2000/svg" xmlns:xlink="http://www.w3.org/1999/xlink" x="0px" y="0px"
	 viewBox="0 0 150 150" style="enable-background:new 0 0 150 150;" xml:space="preserve">
<path id="Forever_Faster_Logo_Vertical_-_large_use_1_" d="M79.8,36.2c0.4-0.1,1.1,1.4,1.5,1.3c0.4-0.1,1-1.4,1.6-1.3
	c0.2,0,1.2,2,1.2,2c8,0.4,17.9,10.1,19.2,11.1c0.6,0.5,3.2,3.2,7.9,5.2c1.9,0.9,3.9,1.2,5.7,1.1c2.4-0.2,5.1-2.3,6.8-5.2
	c2.1-3.6,3-9.9,9-13.5c0.8-0.5,2.8-1.6,3.9-0.2c0.9,1.1,0.2,3-0.8,3.9c-0.6,0.6-1.6,1.1-3.7,2.1c-0.7,0.3-1.8,1.2-2.2,1.5
	c-2.2,1.7-3.7,5.4-5.5,9.5c0,0-0.7,2-4,4.2c-0.6,0.4-0.1,0.7,0.5,1.4c0.8,1,2.3,5.2,2.1,11.5c0,1.1,0.4,1.6,0.9,2.5
	c0.9,1.6,2.6,1.2,2.6,3.3c0,2.8,2,3.4,1.3,4.7c-0.5,0.9-0.3,1.9-0.3,2.8c0,0.5,0.2,1.1-0.7,1.1c-3.9-0.2-3.6-5.5-3.6-7.3
	c0.1-0.2-0.1-0.6-0.1-0.7c-0.2-0.1-2.6-2-2.8-2.2c-3-3-4.9-5.7-6-8.5c-0.7-1.9-1.5-3.7-2.7-4.8c-1.4-1.3-3.2-2-4.7-2.1
	c-10.9-0.1-13.2-4.8-16.1-7.2c-0.1-0.1-0.4-0.2-0.5-0.2c-0.2,0-0.3,0.2-0.4,0.3C88.7,53.6,87.6,54,86,54c-3.7,0-7.6-3.2-8.3-2.5
	c-0.5,0.6-0.1,1.7-1,1.9c-1.4,0.3-2.9-1.1-2.8-2.3c0.2-2.1,2.4-2.7,4.3-2.9c1.6-0.2,2.9,0.3,3.2,0.3c0.9,0.1,1-0.9,0.9-1.6
	c-0.2-0.8-0.9-0.9-1.6-1.1c-0.9-0.3-1.9,0.5-2.5,0.2c-0.8-0.3-0.8-0.7-1.5-1.2c-0.8-0.7-1.8-0.9-1.8-1.9c0-0.9,1.1-1,1.5-1.9
	c0.2-0.4,0.1-0.9,0.2-1.1c0.4-0.7,1.1-0.7,1.7-1.2C79,37.8,79.4,36.3,79.8,36.2 M44.6,94.1c-0.8,0-1.4-0.6-1.4-1.4v-25H35v27.5
	c0,1.3,1.1,2.4,2.4,2.4h14.4c1.3,0,2.4-1.1,2.4-2.4V67.7H46v25C46,93.4,45.4,94,44.6,94.1 M72.1,67.7H59.7c-1.5,0-2.7,1.2-2.7,2.7
	v27.3h8.2v-25c0-0.8,0.6-1.4,1.4-1.4s1.4,0.6,1.4,1.4v25h8.2v-25c0-0.8,0.6-1.4,1.4-1.4s1.4,0.6,1.4,1.4v25h8.2V70.4
	c0-1.5-1.2-2.7-2.7-2.7C84.5,67.7,72.1,67.7,72.1,67.7z M29.5,90.1c1.5,0,2.7-1.2,2.7-2.7v-17c0-1.5-1.1-2.7-2.6-2.7H13v29.9h8.2
	v-7.5L29.5,90.1 M24,85c0,0.8-0.7,1.4-1.4,1.4h-1.4V71.3h1.4c0.7,0,1.4,0.6,1.4,1.4V85z M101.1,97.7h8.2V70.4c0-1.5-1.2-2.7-2.7-2.7
	H92.7c-1.5,0-2.7,1.2-2.7,2.7v27.3h8.2v-7.5h2.8L101.1,97.7 M98.3,86.4V72.7c0-0.8,0.7-1.4,1.4-1.4c0.8,0,1.4,0.6,1.4,1.4v13.8
	L98.3,86.4L98.3,86.4z M19.1,104.9c0.1,0,0.1,0,0.1,0.2v0.3c0,0.1-0.1,0.2-0.2,0.2h-4.3l-0.4,3.4h4.1c0.1,0,0.1,0,0.1,0.2v0.3
	c0,0.1-0.1,0.2-0.2,0.2h-4.1l-0.5,4.2c0,0.1,0,0.2-0.2,0.2h-0.4c-0.1,0-0.2-0.1-0.1-0.2l1.1-8.7c0-0.1,0.1-0.2,0.2-0.2L19.1,104.9
	L19.1,104.9z M21,106.6c0.1-1,0.8-1.9,3-1.9c1.9,0,2.6,0.7,2.6,1.6c0,0.1,0,0.2,0,0.3l-0.7,5.5c-0.1,1-0.8,1.9-3,1.9
	c-1.9,0-2.6-0.7-2.6-1.6c0-0.1,0-0.2,0-0.3L21,106.6z M25.8,106.8c0-0.1,0-0.2,0-0.2c0-0.7-0.5-1.2-1.9-1.2c-1.5,0-2.1,0.6-2.2,1.4
	l-0.6,5.2c0,0.1,0,0.2,0,0.2c0,0.7,0.5,1.2,1.9,1.2c1.5,0,2.1-0.6,2.2-1.4L25.8,106.8z M29.4,110.2l-0.5,3.6c0,0.1,0,0.2-0.2,0.2
	h-0.4c-0.1,0-0.2,0-0.1-0.2l1.1-8.7c0-0.1,0.1-0.2,0.2-0.2H32c1.9,0,2.6,0.7,2.6,1.7c0,0.1,0,0.2,0,0.3l-0.2,1.5
	c-0.1,0.8-0.6,1.5-1.9,1.7l1.3,3.7c0,0.1,0,0.2-0.1,0.2h-0.4c-0.1,0-0.2-0.1-0.2-0.2l-1.3-3.6c-0.1,0-0.3,0-0.4,0H29.4z M30,105.5
	l-0.5,4.1h2c1.5,0,2.1-0.5,2.2-1.3l0.2-1.3c0-0.1,0-0.2,0-0.2c0-0.7-0.5-1.2-1.9-1.2L30,105.5L30,105.5z M36.5,113.9
	c-0.1,0-0.2-0.1-0.1-0.2l1.1-8.7c0-0.1,0.1-0.2,0.2-0.2h4.5c0.1,0,0.1,0,0.1,0.2v0.3c0,0.1-0.1,0.2-0.2,0.2h-4l-0.4,3.4h3.7
	c0.1,0,0.1,0,0.1,0.2v0.3c0,0.1-0.1,0.2-0.2,0.2h-3.7l-0.5,3.8h4.1c0.1,0,0.2,0,0.1,0.2v0.3c0,0.1-0.1,0.2-0.2,0.2h-4.6V113.9z
	 M51.2,113.9c-0.1,0-0.2-0.1-0.1-0.2l1.1-8.7c0-0.1,0.1-0.2,0.2-0.2h4.5c0.1,0,0.1,0,0.1,0.2v0.3c0,0.1-0.1,0.2-0.2,0.2h-4l-0.4,3.4
	h3.7c0.1,0,0.1,0,0.1,0.2v0.3c0,0.1-0.1,0.2-0.2,0.2h-3.7l-0.5,3.8h4.1c0.1,0,0.2,0,0.1,0.2v0.3c0,0.1-0.1,0.2-0.2,0.2h-4.6V113.9z
	 M59.5,110.2l-0.4,3.6c0,0.1,0,0.2-0.2,0.2h-0.4c-0.1,0-0.2,0-0.1-0.2l1.1-8.7c0-0.1,0.1-0.2,0.2-0.2h2.5c1.9,0,2.6,0.7,2.6,1.7
	c0,0.1,0,0.2,0,0.3l-0.2,1.5c-0.1,0.8-0.6,1.5-1.9,1.7l1.3,3.7c0,0.1,0,0.2-0.1,0.2h-0.4c-0.1,0-0.2-0.1-0.2-0.2l-1.3-3.6
	c-0.1,0-0.3,0-0.4,0H59.5z M60,105.5l-0.5,4.1h2c1.5,0,2.1-0.5,2.2-1.3l0.2-1.3c0-0.1,0-0.2,0-0.2c0-0.7-0.5-1.2-1.9-1.2L60,105.5
	L60,105.5z M67.9,113.9h-0.8c-0.1,0-0.2,0-0.3-0.1c-0.1-0.1-0.1-0.2-0.1-0.3l1-8.2c0-0.2,0.2-0.4,0.4-0.4h4.7c0.1,0,0.2,0,0.3,0.1
	c0.1,0.1,0.1,0.2,0.1,0.3l-0.1,0.6c0,0.2-0.2,0.3-0.4,0.3h-3.6l-0.3,2.4h3.3c0.1,0,0.2,0,0.3,0.1c0.1,0.1,0.1,0.2,0.1,0.3l-0.1,0.6
	c0,0.2-0.2,0.3-0.4,0.3h-3.4l-0.5,3.6C68.3,113.7,68.2,113.9,67.9,113.9z M83.8,114c-2.5,0-2.8-1.2-2.8-1.9c0,0,0-0.2,0-0.3l0.1-0.7
	c0-0.2,0.2-0.4,0.4-0.4h0.8c0.1,0,0.2,0,0.3,0.1c0.1,0.1,0.1,0.2,0.1,0.3l-0.1,0.5c0,0.1,0,0.2,0,0.2c0,0.3,0.1,0.8,1.4,0.8
	c1.4,0,1.6-0.6,1.7-1l0.1-0.7c0-0.1,0-0.1,0-0.2c0-0.4-0.4-0.5-0.9-0.7l-1.8-0.7c-0.8-0.3-1.3-0.9-1.3-1.6c0,0,0-0.2,0-0.3l0.1-0.6
	c0.2-1.4,1.2-2.1,3.1-2.1c2.4,0,2.7,1.1,2.7,1.8c0,0.1,0,0.2,0,0.3l-0.1,0.6c0,0.2-0.2,0.3-0.4,0.3h-0.8c-0.1,0-0.2,0-0.3-0.1
	c-0.1-0.1-0.1-0.2-0.1-0.3l0.1-0.4c0-0.1,0-0.2,0-0.2c0-0.3-0.1-0.8-1.3-0.8c-1.3,0-1.5,0.5-1.6,1v0.3c0,0.1,0,0.1,0,0.2
	c0,0.3,0.1,0.4,0.5,0.5l2.2,0.9c0.9,0.4,1.3,0.9,1.3,1.7c0,0.1,0,0.2,0,0.3l-0.1,1C86.9,112.8,86.3,114,83.8,114z M91.3,113.9h-0.8
	c-0.1,0-0.2,0-0.3-0.1c-0.1-0.1-0.1-0.2-0.1-0.3l0.9-7.3h-1.9c-0.1,0-0.2,0-0.3-0.1c-0.1-0.1-0.1-0.2-0.1-0.3l0.1-0.6
	c0-0.2,0.2-0.3,0.4-0.3h5.4c0.1,0,0.2,0,0.3,0.1c0.1,0.1,0.1,0.2,0.1,0.3l-0.1,0.6c0,0.2-0.2,0.3-0.4,0.3h-2l-0.9,7.3
	C91.7,113.7,91.6,113.9,91.3,113.9z M100.3,113.9h-4.5c-0.1,0-0.2,0-0.3-0.1c-0.1-0.1-0.1-0.2-0.1-0.3l1-8.2c0-0.2,0.2-0.4,0.4-0.4
	h4.4c0.1,0,0.2,0,0.3,0.1c0.1,0.1,0.1,0.2,0.1,0.3l-0.1,0.6c0,0.2-0.2,0.3-0.4,0.3h-3.3l-0.3,2.4h3c0,0,0.2,0,0.3,0.1
	c0.1,0.1,0.1,0.2,0.1,0.3l-0.1,0.6c0,0.2-0.2,0.3-0.4,0.3h-3.1l-0.3,2.7h3.4c0.1,0,0.2,0,0.3,0.1c0.1,0.1,0.1,0.1,0.1,0.3l-0.1,0.6
	C100.7,113.8,100.6,113.9,100.3,113.9z M108.2,113.9h-0.8c-0.2,0-0.3-0.2-0.4-0.3l-1-3.1h-1.6l-0.4,3.1c0,0.2-0.1,0.4-0.4,0.4h-0.8
	c-0.1,0-0.2,0-0.3-0.1c-0.1-0.1-0.1-0.2-0.1-0.3l1-8.2c0-0.2,0.2-0.4,0.4-0.4h2.6c2.6,0,2.9,1.4,2.9,1.9c0,0.1,0,0.2,0,0.3l-0.1,1.3
	c-0.1,0.9-0.7,1.5-1.7,1.8l1.1,3.2c0,0.1,0,0.2,0,0.3C108.4,113.8,108.3,113.9,108.2,113.9z M104.5,109.1h1.5c1.1,0,1.6-0.3,1.7-1
	l0.1-0.8c0-0.1,0-0.2,0-0.2c0-0.4-0.2-0.9-1.4-0.9h-1.5L104.5,109.1z M50.2,105l-3.7,8.7c0,0.1-0.1,0.2-0.2,0.2h-0.4
	c-0.1,0-0.2-0.1-0.2-0.2l-1.6-8.7c0-0.1,0-0.2,0.1-0.2h0.4c0.1,0,0.2,0.1,0.2,0.2l1.4,7.6l3.3-7.6c0-0.1,0.1-0.2,0.2-0.2h0.4
	C50.3,104.9,50.3,105,50.2,105z M79.5,113.5l-1.5-8.3c0-0.2-0.2-0.3-0.4-0.3h-0.8c-0.3,0-0.4,0.2-0.4,0.3l-3.5,8.3
	c-0.1,0.1-0.1,0.2,0,0.3c0,0.1,0.1,0.1,0.3,0.1h0.7c0.3,0,0.4-0.2,0.4-0.3l0.8-1.9h2.5l0.3,1.9c0,0.3,0.2,0.3,0.4,0.3h0.8
	c0.1,0,0.2,0,0.3-0.1C79.5,113.7,79.5,113.6,79.5,113.5z M75.7,110.4l1.3-3l0.5,3H75.7z"/>
</svg>
